<svg width="450" height="485" viewBox="0 0 450 485" fill="none" xmlns="http://www.w3.org/2000/svg">
<rect width="450" height="485" rx="50" fill="black"/>
<g clip-path="url(#clip0_4_4)">
<path fill-rule="evenodd" clip-rule="evenodd" d="M225.262 62C320.888 62 398.524 142.661 398.524 242.012C398.524 341.363 320.888 422.024 225.262 422.024C129.636 422.024 52 341.363 52 242.012C52 142.661 129.636 62 225.262 62ZM225.291 64.306C153.953 64.306 117.749 142.92 117.749 242.119C117.749 341.319 153.952 419.926 225.29 419.926C296.628 419.926 331.923 342.313 331.923 243.114C331.923 143.915 296.629 64.306 225.291 64.306Z" fill="white"/>
</g>
<defs>
<clipPath id="clip0_4_4">
<rect width="347" height="361" fill="white" transform="translate(52 62)"/>
</clipPath>
</defs>
</svg>
